<svg width="40" height="40" viewBox="0 0 40 40" fill="none" xmlns="http://www.w3.org/2000/svg">
<rect width="40" height="40" rx="20" fill="#FF3E79"/>
<path fill-rule="evenodd" clip-rule="evenodd" d="M13.7934 12.2571C13.4028 11.8666 12.7697 11.8666 12.3792 12.2571L12.257 12.3793C11.8665 12.7698 11.8665 13.403 12.257 13.7935L18.4635 20L12.257 26.2065C11.8665 26.5971 11.8665 27.2302 12.257 27.6207L12.3792 27.7429C12.7697 28.1334 13.4028 28.1334 13.7934 27.7429L19.9999 21.5364L26.2064 27.7429C26.5969 28.1334 27.2301 28.1334 27.6206 27.7429L27.7428 27.6207C28.1333 27.2302 28.1333 26.5971 27.7428 26.2065L21.5362 20L27.7428 13.7935C28.1333 13.403 28.1333 12.7698 27.7428 12.3793L27.6206 12.2571C27.2301 11.8666 26.5969 11.8666 26.2064 12.2571L19.9999 18.4636L13.7934 12.2571Z" fill="white"/>
</svg>
