<svg width="98" height="52" viewBox="0 0 98 52" fill="none" xmlns="http://www.w3.org/2000/svg">
<path fill-rule="evenodd" clip-rule="evenodd" d="M36.5703 0.725922C36.018 0.725922 35.5703 1.17364 35.5703 1.72592V6.00087C35.5703 6.55316 36.018 7.00087 36.5703 7.00087H72.8973C83.0242 7.00087 90.9777 14.7975 90.9777 24.8903C90.9777 25.1759 91.2092 25.4074 91.4948 25.4074H96.757C97.0425 25.4074 97.274 25.1759 97.274 24.8903C97.274 11.4011 86.432 0.725922 72.8973 0.725922H36.5703Z" fill="#6B7B84" stroke="#80949F" stroke-width="0.5"/>
<path fill-rule="evenodd" clip-rule="evenodd" d="M7.10658 25.8457C7.10658 25.6036 6.91035 25.4074 6.66829 25.4074H1.16412C0.922059 25.4074 0.72583 25.6036 0.72583 25.8457C0.72583 39.4951 10.9491 50.7646 24.1685 51.5021L66.5101 51.5399C67.0628 51.5403 67.511 51.0925 67.511 50.5399V45.9602C67.511 45.4079 67.0633 44.9602 66.511 44.9602H25.6263C15.3901 44.9319 7.10658 36.4165 7.10658 25.8457Z" fill="#6B7B84" stroke="#80949F" stroke-width="0.5"/>
<path fill-rule="evenodd" clip-rule="evenodd" d="M28.1413 39.9259C30.8801 39.9259 33.1614 39.3938 35.4147 38.299L35.5702 38.1535V30.319L34.7271 31.3984C33.1046 33.1713 30.9257 34.1472 28.4606 34.1472C23.869 34.1472 19.2573 31.1794 19.2573 25.5073C19.2573 21.221 22.4379 16.6655 28.2991 16.6655C29.4686 16.6655 32.3128 16.942 34.7229 19.5015L35.5702 20.5452V12.7463L35.4215 12.5988C33.1256 11.4482 30.7841 10.8889 28.1134 10.8889C23.5465 10.8889 19.9818 12.0912 17.1436 14.5625C15.3433 16.1112 12.3406 19.582 12.3406 25.4258C12.3406 29.7466 13.8791 33.121 17.1666 36.0479C20.225 38.7297 23.616 39.9259 28.1413 39.9259Z" fill="#6B7B84"/>
<path d="M28.1413 39.9259C30.8801 39.9259 33.1614 39.3938 35.4147 38.299L35.5702 38.1535V30.319L34.7271 31.3984C33.1046 33.1713 30.9257 34.1472 28.4606 34.1472C23.869 34.1472 19.2573 31.1794 19.2573 25.5073C19.2573 21.221 22.4379 16.6655 28.2991 16.6655C29.4686 16.6655 32.3128 16.942 34.7229 19.5015L35.5702 20.5452V12.7463L35.4215 12.5988C33.1256 11.4482 30.7841 10.8889 28.1134 10.8889C23.5465 10.8889 19.9818 12.0912 17.1436 14.5625C15.3433 16.1112 12.3406 19.582 12.3406 25.4258C12.3406 29.7466 13.8791 33.121 17.1666 36.0479C20.225 38.7297 23.616 39.9259 28.1413 39.9259" stroke="#80949F" stroke-width="0.5"/>
<path fill-rule="evenodd" clip-rule="evenodd" d="M47.911 17.4222H49.2753C50.5268 17.4222 51.9532 17.4905 53.0327 18.2264C53.5599 18.6029 54.4444 19.4746 54.4444 21.058C54.4444 22.228 53.9273 23.2771 53.0732 23.9318C51.9782 24.7266 50.6767 24.681 49.6308 24.681H47.911V17.4222ZM50.9767 29.9514C54.2081 29.9514 56.7375 29.0193 58.494 27.2633C60.6547 25.1071 60.9777 22.1408 60.9777 20.5771C60.9777 18.9038 60.5811 15.6401 57.9209 13.277C55.7405 11.3663 53.414 10.8889 50.1322 10.8889H41.3777V39.9259H48.0363V29.9514H50.9767Z" fill="#6B7B84"/>
<path d="M47.911 17.4222V17.1722H47.661V17.4222H47.911ZM53.0327 18.2264L53.1781 18.0229L53.1735 18.0198L53.0327 18.2264ZM53.0732 23.9318L53.2201 24.1341L53.2253 24.1302L53.0732 23.9318ZM47.911 24.681H47.661V24.931H47.911V24.681ZM58.494 27.2633L58.3174 27.0864L58.3173 27.0865L58.494 27.2633ZM57.9209 13.277L58.087 13.0901L58.0857 13.089L57.9209 13.277ZM41.3777 10.8889V10.6389H41.1277V10.8889H41.3777ZM41.3777 39.9259H41.1277V40.1759H41.3777V39.9259ZM48.0363 39.9259V40.1759H48.2863V39.9259H48.0363ZM48.0363 29.9514V29.7014H47.7863V29.9514H48.0363ZM47.911 17.6722H49.2753V17.1722H47.911V17.6722ZM49.2753 17.6722C50.5325 17.6722 51.8837 17.7457 52.8919 18.4329L53.1735 18.0198C52.0226 17.2353 50.5211 17.1722 49.2753 17.1722V17.6722ZM52.8874 18.4298C53.375 18.7781 54.1944 19.5829 54.1944 21.058H54.6944C54.6944 19.3664 53.7447 18.4277 53.178 18.0229L52.8874 18.4298ZM54.1944 21.058C54.1944 22.1539 53.7106 23.1282 52.9211 23.7333L53.2253 24.1302C54.144 23.426 54.6944 22.3021 54.6944 21.058H54.1944ZM52.9264 23.7294C51.909 24.4679 50.697 24.431 49.6308 24.431V24.931C50.6563 24.931 52.0474 24.9853 53.2201 24.1341L52.9264 23.7294ZM49.6308 24.431H47.911V24.931H49.6308V24.431ZM48.161 24.681V17.4222H47.661V24.681H48.161ZM50.9767 30.2014C54.2566 30.2014 56.8561 29.2542 58.6708 27.4401L58.3173 27.0865C56.6189 28.7844 54.1597 29.7014 50.9767 29.7014V30.2014ZM58.6706 27.4403C60.9027 25.2128 61.2277 22.1623 61.2277 20.5771H60.7277C60.7277 22.1194 60.4068 25.0013 58.3174 27.0864L58.6706 27.4403ZM61.2277 20.5771C61.2277 18.8757 60.826 15.5233 58.087 13.0901L57.7549 13.4639C60.3361 15.7569 60.7277 18.9319 60.7277 20.5771H61.2277ZM58.0857 13.089C55.8398 11.1209 53.4415 10.6389 50.1322 10.6389V11.1389C53.3865 11.1389 55.6412 11.6118 57.7562 13.465L58.0857 13.089ZM50.1322 10.6389H41.3777V11.1389H50.1322V10.6389ZM41.1277 10.8889V39.9259H41.6277V10.8889H41.1277ZM41.3777 40.1759H48.0363V39.6759H41.3777V40.1759ZM48.2863 39.9259V29.9514H47.7863V39.9259H48.2863ZM48.0363 30.2014H50.9767V29.7014H48.0363V30.2014Z" fill="#80949F"/>
<path fill-rule="evenodd" clip-rule="evenodd" d="M80.9528 24.6022C79.5051 23.3196 77.4843 22.576 75.1908 21.8048C73.5567 21.2362 72.6563 20.9229 72.056 20.3756C71.5822 19.9734 71.371 19.5368 71.371 18.9597C71.371 17.6957 72.2299 16.3448 74.6412 16.3448C76.2799 16.3448 77.6519 17.0455 78.7194 18.4266L79.1432 18.9749L82.6595 14.4991L82.3389 14.178C80.1884 12.026 77.3546 10.8889 74.1437 10.8889C67.6654 10.8889 64.7655 15.1034 64.7655 19.2804C64.7655 21.5218 65.5649 23.3295 67.1364 24.651C68.5434 25.8569 70.2593 26.5326 71.9052 27.0842L72.0912 27.1459C73.5528 27.629 75.0643 28.1289 75.9671 28.9369C76.5952 29.514 76.8751 30.1412 76.8751 30.9702C76.8751 32.8703 75.3788 34.1472 73.1518 34.1472C71.3914 34.1472 69.0733 33.2843 67.8469 30.8631L67.5261 30.2288L63.1555 34.2746L63.4133 34.6392C64.8077 36.6136 67.9542 39.9259 73.3591 39.9259C79.3188 39.9259 83.4814 36.0944 83.4814 30.6086C83.4814 27.4709 82.1049 25.6087 80.9528 24.6022Z" fill="#6B7B84"/>
<path d="M80.9528 24.6022C79.5051 23.3196 77.4843 22.576 75.1908 21.8048C73.5567 21.2362 72.6563 20.9229 72.056 20.3756C71.5822 19.9734 71.371 19.5368 71.371 18.9597C71.371 17.6957 72.2299 16.3448 74.6412 16.3448C76.2799 16.3448 77.6519 17.0455 78.7194 18.4266L79.1432 18.9749L82.6595 14.4991L82.3389 14.178C80.1884 12.026 77.3546 10.8889 74.1437 10.8889C67.6654 10.8889 64.7655 15.1034 64.7655 19.2804C64.7655 21.5218 65.5649 23.3295 67.1364 24.651C68.5434 25.8569 70.2593 26.5326 71.9052 27.0842L72.0912 27.1459C73.5528 27.629 75.0643 28.1289 75.9671 28.9369C76.5952 29.514 76.8751 30.1412 76.8751 30.9702C76.8751 32.8703 75.3788 34.1472 73.1518 34.1472C71.3914 34.1472 69.0733 33.2843 67.8469 30.8631L67.5261 30.2288L63.1555 34.2746L63.4133 34.6392C64.8077 36.6136 67.9542 39.9259 73.3591 39.9259C79.3188 39.9259 83.4814 36.0944 83.4814 30.6086C83.4814 27.4709 82.1049 25.6087 80.9528 24.6022" stroke="#80949F" stroke-width="0.5"/>
</svg>
